<svg className="w-30 h-10 fill-current text-sky-500 dark:text-white" width="100%" height="100%" viewBox="0 0 1568 265" version="1.1" xmlns="http://www.w3.org/2000/svg" xmlns:xlink="http://www.w3.org/1999/xlink" xml:space="preserve" xmlns:serif="http://www.serif.com/">
    <g>
        <g transform="matrix(2.02955,0,0,2.02955,-395.546,0.0175826)">
            <g transform="matrix(144,0,0,144,306.33,102.807)">
                <path d="M0.283,0.01C0.237,0.01 0.194,-0.001 0.157,-0.023C0.119,-0.045 0.089,-0.074 0.068,-0.112C0.046,-0.15 0.035,-0.192 0.035,-0.238C0.035,-0.285 0.046,-0.327 0.068,-0.364C0.089,-0.401 0.119,-0.431 0.157,-0.452C0.194,-0.474 0.237,-0.485 0.283,-0.485C0.32,-0.485 0.354,-0.478 0.385,-0.464C0.417,-0.45 0.443,-0.431 0.466,-0.405L0.406,-0.345C0.391,-0.363 0.373,-0.376 0.352,-0.385C0.331,-0.394 0.308,-0.398 0.283,-0.398C0.253,-0.398 0.226,-0.391 0.203,-0.378C0.179,-0.364 0.161,-0.345 0.148,-0.321C0.134,-0.297 0.128,-0.27 0.128,-0.238C0.128,-0.207 0.134,-0.179 0.148,-0.155C0.161,-0.131 0.179,-0.112 0.203,-0.098C0.226,-0.084 0.253,-0.077 0.283,-0.077C0.308,-0.077 0.331,-0.081 0.353,-0.09C0.374,-0.099 0.392,-0.113 0.407,-0.13L0.466,-0.07C0.444,-0.044 0.417,-0.025 0.385,-0.011C0.354,0.003 0.32,0.01 0.283,0.01Z"/>
            </g>
            <g transform="matrix(144,0,0,144,367.818,102.807)">
                <path d="M0.283,0.01C0.236,0.01 0.195,-0.001 0.157,-0.023C0.12,-0.045 0.09,-0.075 0.068,-0.113C0.046,-0.15 0.035,-0.192 0.035,-0.239C0.035,-0.285 0.046,-0.327 0.068,-0.364C0.09,-0.401 0.12,-0.43 0.157,-0.452C0.195,-0.474 0.236,-0.485 0.283,-0.485C0.329,-0.485 0.371,-0.474 0.408,-0.452C0.446,-0.431 0.476,-0.401 0.498,-0.364C0.52,-0.327 0.531,-0.285 0.531,-0.239C0.531,-0.192 0.52,-0.15 0.498,-0.113C0.476,-0.075 0.446,-0.045 0.408,-0.023C0.371,-0.001 0.329,0.01 0.283,0.01ZM0.283,-0.077C0.313,-0.077 0.339,-0.084 0.363,-0.098C0.386,-0.112 0.405,-0.131 0.418,-0.155C0.431,-0.18 0.438,-0.208 0.438,-0.239C0.438,-0.27 0.431,-0.297 0.418,-0.321C0.404,-0.345 0.386,-0.364 0.363,-0.378C0.339,-0.391 0.313,-0.398 0.283,-0.398C0.253,-0.398 0.226,-0.391 0.203,-0.378C0.179,-0.364 0.161,-0.345 0.148,-0.321C0.134,-0.297 0.128,-0.27 0.128,-0.239C0.128,-0.208 0.134,-0.18 0.148,-0.155C0.161,-0.131 0.179,-0.112 0.203,-0.098C0.226,-0.084 0.253,-0.077 0.283,-0.077Z"/>
            </g>
            <g transform="matrix(144,0,0,144,443.13,102.807)">
                <path d="M0.267,0.01C0.223,0.01 0.184,-0.001 0.149,-0.023C0.114,-0.044 0.087,-0.074 0.066,-0.111C0.046,-0.148 0.036,-0.19 0.036,-0.237C0.036,-0.284 0.046,-0.326 0.066,-0.363C0.087,-0.4 0.114,-0.43 0.149,-0.452C0.184,-0.474 0.223,-0.485 0.267,-0.485C0.302,-0.485 0.335,-0.478 0.363,-0.463C0.392,-0.448 0.415,-0.427 0.433,-0.401C0.45,-0.374 0.46,-0.343 0.462,-0.309L0.462,-0.166C0.46,-0.132 0.45,-0.102 0.433,-0.075C0.416,-0.049 0.393,-0.028 0.364,-0.013C0.335,0.002 0.303,0.01 0.267,0.01ZM0.282,-0.075C0.312,-0.075 0.338,-0.082 0.36,-0.096C0.383,-0.11 0.4,-0.129 0.413,-0.153C0.425,-0.178 0.432,-0.206 0.432,-0.237C0.432,-0.269 0.425,-0.298 0.413,-0.322C0.4,-0.346 0.382,-0.365 0.36,-0.379C0.337,-0.393 0.311,-0.4 0.281,-0.4C0.251,-0.4 0.225,-0.393 0.202,-0.379C0.179,-0.365 0.162,-0.346 0.148,-0.322C0.135,-0.297 0.129,-0.269 0.129,-0.238C0.129,-0.206 0.135,-0.178 0.148,-0.153C0.161,-0.129 0.179,-0.11 0.202,-0.096C0.226,-0.082 0.252,-0.075 0.282,-0.075ZM0.517,-0L0.426,-0L0.426,-0.128L0.443,-0.244L0.426,-0.359L0.426,-0.714L0.517,-0.714L0.517,-0Z"/>
            </g>
            <g transform="matrix(144,0,0,144,517.866,102.807)">
                <path d="M0.286,0.01C0.238,0.01 0.196,-0.001 0.158,-0.022C0.12,-0.044 0.09,-0.073 0.068,-0.111C0.046,-0.148 0.035,-0.191 0.035,-0.238C0.035,-0.285 0.046,-0.327 0.067,-0.364C0.089,-0.401 0.118,-0.431 0.156,-0.452C0.193,-0.474 0.234,-0.485 0.28,-0.485C0.324,-0.485 0.362,-0.475 0.396,-0.455C0.43,-0.435 0.456,-0.407 0.475,-0.372C0.495,-0.337 0.504,-0.297 0.504,-0.252C0.504,-0.245 0.504,-0.238 0.503,-0.23C0.502,-0.222 0.501,-0.214 0.499,-0.204L0.098,-0.204L0.098,-0.279L0.451,-0.279L0.418,-0.25C0.418,-0.282 0.412,-0.309 0.401,-0.332C0.39,-0.354 0.374,-0.371 0.353,-0.384C0.333,-0.396 0.308,-0.402 0.278,-0.402C0.247,-0.402 0.22,-0.395 0.197,-0.382C0.174,-0.368 0.156,-0.35 0.143,-0.326C0.13,-0.302 0.124,-0.273 0.124,-0.241C0.124,-0.207 0.131,-0.178 0.144,-0.153C0.158,-0.128 0.177,-0.109 0.201,-0.095C0.226,-0.081 0.254,-0.075 0.286,-0.075C0.313,-0.075 0.337,-0.079 0.36,-0.089C0.382,-0.098 0.401,-0.112 0.417,-0.131L0.475,-0.072C0.452,-0.046 0.424,-0.025 0.391,-0.011C0.358,0.003 0.323,0.01 0.286,0.01Z"/>
            </g>
            <g transform="matrix(147,0,0,147,581.514,102.807)">
                <path d="M0.125,-0L0.125,-0.047L0.352,-0.047C0.401,-0.047 0.441,-0.06 0.471,-0.087C0.5,-0.114 0.515,-0.149 0.515,-0.192C0.515,-0.22 0.509,-0.244 0.496,-0.266C0.483,-0.288 0.465,-0.305 0.442,-0.317C0.418,-0.33 0.391,-0.336 0.361,-0.336L0.125,-0.336L0.125,-0.381L0.353,-0.381C0.393,-0.381 0.425,-0.393 0.449,-0.415C0.472,-0.438 0.484,-0.469 0.484,-0.508C0.484,-0.548 0.471,-0.579 0.445,-0.602C0.419,-0.624 0.384,-0.635 0.341,-0.635L0.125,-0.635L0.125,-0.682L0.341,-0.682C0.382,-0.682 0.417,-0.675 0.446,-0.661C0.475,-0.646 0.498,-0.626 0.513,-0.601C0.529,-0.576 0.537,-0.546 0.537,-0.512C0.537,-0.473 0.526,-0.44 0.506,-0.412C0.486,-0.384 0.457,-0.364 0.419,-0.351L0.425,-0.369C0.47,-0.357 0.505,-0.334 0.53,-0.303C0.556,-0.271 0.569,-0.233 0.569,-0.189C0.569,-0.152 0.56,-0.12 0.542,-0.091C0.524,-0.063 0.498,-0.04 0.465,-0.024C0.432,-0.008 0.393,-0 0.347,-0L0.125,-0ZM0.093,-0L0.093,-0.682L0.146,-0.682L0.146,-0L0.093,-0Z"/>
            </g>
            <g transform="matrix(147,0,0,147,660.453,102.807)">
                <path d="M0.257,0.01C0.219,0.01 0.186,0.001 0.157,-0.016C0.128,-0.033 0.105,-0.057 0.089,-0.088C0.072,-0.118 0.064,-0.154 0.064,-0.194L0.064,-0.465L0.115,-0.465L0.115,-0.196C0.115,-0.165 0.121,-0.137 0.132,-0.114C0.144,-0.09 0.161,-0.071 0.182,-0.058C0.204,-0.044 0.228,-0.038 0.257,-0.038C0.3,-0.038 0.334,-0.052 0.36,-0.081C0.385,-0.111 0.398,-0.149 0.398,-0.196L0.398,-0.465L0.449,-0.465L0.449,-0.194C0.449,-0.154 0.441,-0.119 0.424,-0.088C0.408,-0.057 0.385,-0.033 0.356,-0.016C0.328,0.001 0.294,0.01 0.257,0.01Z"/>
            </g>
            <g transform="matrix(140,0,0,140,731.307,102.807)">
                <path d="M0.26,-0.512C0.296,-0.512 0.33,-0.505 0.362,-0.492C0.393,-0.478 0.421,-0.459 0.445,-0.436C0.468,-0.412 0.487,-0.384 0.501,-0.352C0.514,-0.32 0.521,-0.286 0.521,-0.25L0.521,-0L0.469,-0L0.469,-0.25C0.469,-0.279 0.464,-0.306 0.453,-0.332C0.442,-0.357 0.427,-0.379 0.408,-0.398C0.389,-0.417 0.367,-0.432 0.342,-0.443C0.316,-0.454 0.289,-0.459 0.26,-0.459C0.231,-0.459 0.204,-0.454 0.179,-0.443C0.154,-0.432 0.132,-0.417 0.113,-0.398C0.094,-0.379 0.079,-0.357 0.068,-0.332C0.057,-0.306 0.051,-0.279 0.051,-0.25L0.051,-0L-0.001,-0L-0.001,-0.25C-0.001,-0.286 0.006,-0.32 0.02,-0.352C0.033,-0.384 0.052,-0.412 0.076,-0.436C0.099,-0.459 0.127,-0.478 0.159,-0.492C0.19,-0.505 0.224,-0.512 0.26,-0.512Z"/>
            </g>
            <g transform="matrix(140,0,0,140,809.847,102.807)">
                <path d="M0.26,-0.512C0.296,-0.512 0.33,-0.505 0.362,-0.492C0.393,-0.478 0.421,-0.459 0.445,-0.436C0.468,-0.412 0.487,-0.384 0.501,-0.352C0.514,-0.32 0.521,-0.286 0.521,-0.25L0.521,-0L0.469,-0L0.469,-0.25C0.469,-0.279 0.464,-0.306 0.453,-0.332C0.442,-0.357 0.427,-0.379 0.408,-0.398C0.389,-0.417 0.367,-0.432 0.342,-0.443C0.316,-0.454 0.289,-0.459 0.26,-0.459C0.231,-0.459 0.204,-0.454 0.179,-0.443C0.154,-0.432 0.132,-0.417 0.113,-0.398C0.094,-0.379 0.079,-0.357 0.068,-0.332C0.057,-0.306 0.051,-0.279 0.051,-0.25L0.051,-0L-0.001,-0L-0.001,-0.25C-0.001,-0.286 0.006,-0.32 0.02,-0.352C0.033,-0.384 0.052,-0.412 0.076,-0.436C0.099,-0.459 0.127,-0.478 0.159,-0.492C0.19,-0.505 0.224,-0.512 0.26,-0.512Z"/>
            </g>
            <g transform="matrix(140,0,0,140,879.987,102.807)">
                <path d="M0.234,0.001L0.027,-0.465L0.083,-0.465L0.262,-0.052L0.236,-0.052L0.423,-0.465L0.479,-0.465L0.26,0.001L0.234,0.001ZM0.113,0.197L0.233,-0.049L0.26,0.001L0.168,0.197L0.113,0.197Z"/>
            </g>
        </g>
        <g id="icon">
            <path d="M210.046,131.023C219.818,110.427 215.571,63.947 179.191,58.202C158.995,55.014 137.078,67.119 126.641,73.964C118.882,60.881 100.26,30.89 83.594,15.012C71.901,3.757 57.095,1.249 46.041,8.604C37.177,14.523 29.726,28.988 37.942,50.317C45.266,69.362 67.033,86.132 90.077,103.891C108.146,117.845 126.906,132.267 137.376,147.304C158.23,177.253 140.267,200.591 139.502,201.506C138.551,202.682 138.032,204.149 138.032,205.661C138.032,209.287 141.016,211.651 144.644,211.651L183.08,211.651C186.708,211.651 192.423,211.864 192.423,208.238C192.423,204.612 190.563,199.346 179.224,199.346L155.955,199.346C157.342,196.11 158.435,192.461 159.219,189.029C160.787,182.106 161.043,174.95 159.974,167.933C181.497,164.745 200.841,150.426 210.046,131.023ZM167.243,106.197L167.233,106.197C162.335,106.197 158.305,102.167 158.305,97.27C158.305,92.373 162.335,88.342 167.233,88.342C172.131,88.342 176.161,92.373 176.161,97.27C176.161,102.167 172.131,106.197 167.233,106.197L167.201,106.197L167.243,106.197Z"/>
            <path d="M112.175,199.346C123.025,199.114 124.154,206.313 124.166,208.516C124.179,210.717 121.937,211.617 118.339,211.651C118.339,211.651 90.179,211.551 54.935,211.083C38.901,210.871 30.3,203.46 21.785,195.247C13.799,196.549 2.532,193.289 0.372,184.925C-0.858,180.165 0.512,171.45 11.432,166.824C11.734,131.02 36.796,113.71 65.612,112.996C38.864,98.6 18.511,75.58 11.577,54.866C7.595,42.971 5.831,30.813 10.621,17.65C15.752,3.551 31.831,1.146 34.392,4.431C36.152,6.689 21.509,9.515 18.833,24.538C16.558,37.313 21.038,48.997 27.184,60.254C36.41,77.152 61.976,97.341 75.203,105.907C85.611,112.646 99.808,127.144 91.292,125.768C85.661,124.858 78.847,124.581 69.986,124.79C61.635,124.987 27.985,128.558 24.196,160.685C23.038,170.504 27.555,185.266 38.439,192.912C46.962,198.9 58.224,199.181 66.99,199.346C67.284,199.352 101.107,199.582 112.175,199.346Z"/>
            <path d="M57.894,157.255C57.518,157.631 57.518,158.241 57.894,158.617L65.574,166.295C66.503,167.225 67.025,168.486 67.026,169.8C67.026,171.116 66.503,172.377 65.574,173.307L65.448,173.432C63.512,175.368 60.373,175.368 58.437,173.432L44.975,159.97C44.435,159.431 44.132,158.699 44.132,157.936C44.132,157.173 44.435,156.441 44.975,155.902L58.437,142.44C60.373,140.505 63.512,140.505 65.448,142.44L65.574,142.566C66.503,143.495 67.026,144.757 67.026,146.072C67.025,147.387 66.503,148.647 65.574,149.578L57.894,157.255Z"/>
        </g>
        <path d="M1533.65,65.29L1533.65,45.089L1536.47,45.089L1536.47,65.29L1533.65,65.29ZM1526.6,47.074L1526.6,44.498L1543.52,44.498L1543.52,47.074L1526.6,47.074Z"/>
        <path d="M1547.44,65.29L1547.44,44.498L1549.42,44.498L1558.23,58.976L1556.89,58.976L1565.7,44.498L1567.68,44.498L1567.68,65.29L1564.85,65.29L1564.85,49.441L1565.5,49.613L1558.55,61.028L1556.57,61.028L1549.62,49.613L1550.26,49.441L1550.26,65.29L1547.44,65.29Z"/>
    </g>
</svg>
