<?xml version="1.0" encoding="UTF-8" standalone="no"?>
<!DOCTYPE svg PUBLIC "-//W3C//DTD SVG 1.1//EN" "http://www.w3.org/Graphics/SVG/1.1/DTD/svg11.dtd">
<svg width="100%" height="100%" viewBox="0 0 160 160" version="1.1" xmlns="http://www.w3.org/2000/svg" xmlns:xlink="http://www.w3.org/1999/xlink" xml:space="preserve" xmlns:serif="http://www.serif.com/" style="fill-rule:evenodd;clip-rule:evenodd;stroke-linejoin:round;stroke-miterlimit:2;">
    <g transform="matrix(0.526807,0,0,0.526807,80,80)">
        <g transform="matrix(1,0,0,1,-133.5,-133.5)">
            <rect id="logo_codebunnies_black" x="0" y="0" width="266.667" height="266.667" style="fill:none;"/>
            <g>
                <g id="icon">
                    <path d="M261.045,162.704C273.189,137.107 267.912,79.341 222.698,72.202C197.599,68.24 170.361,83.284 157.389,91.79C147.746,75.531 124.603,38.258 103.89,18.525C89.359,4.538 70.958,1.421 57.22,10.561C46.203,17.917 36.943,35.894 47.154,62.402C56.256,86.071 83.309,106.913 111.948,128.984C134.404,146.326 157.719,164.249 170.731,182.938C196.648,220.158 174.324,249.163 173.373,250.299C172.191,251.761 171.546,253.584 171.546,255.463C171.546,259.97 175.255,262.908 179.763,262.908L227.532,262.908C232.04,262.908 239.143,263.173 239.143,258.666C239.143,254.16 236.832,247.615 222.74,247.615L193.821,247.615C195.545,243.594 196.903,239.058 197.877,234.793C199.826,226.189 200.144,217.296 198.815,208.575C225.564,204.613 249.605,186.818 261.045,162.704ZM207.85,131.85L207.837,131.85C201.75,131.85 196.741,126.841 196.741,120.755C196.741,114.669 201.75,109.66 207.837,109.66C213.924,109.66 218.933,114.669 218.933,120.755C218.933,126.841 213.924,131.85 207.837,131.85L207.797,131.85L207.85,131.85Z" style="fill-rule:nonzero;"/>
                    <path d="M139.411,247.615C152.895,247.327 154.298,256.274 154.314,259.011C154.329,261.747 151.543,262.866 147.072,262.908C147.072,262.908 112.074,262.783 68.273,262.202C48.346,261.938 37.657,252.728 27.074,242.521C17.15,244.139 3.147,240.088 0.462,229.693C-1.066,223.777 0.636,212.946 14.208,207.197C14.583,162.7 45.73,141.187 81.542,140.299C48.3,122.408 23.006,93.799 14.388,68.055C9.439,53.273 7.247,38.162 13.2,21.804C19.577,4.281 39.56,1.293 42.742,5.375C44.93,8.181 26.732,11.693 23.406,30.364C20.578,46.241 26.146,60.761 33.784,74.752C45.25,95.753 77.024,120.844 93.462,131.489C106.397,139.865 124.041,157.883 113.458,156.172C106.46,155.041 97.991,154.697 86.978,154.957C76.6,155.202 34.78,159.64 30.071,199.567C28.632,211.77 34.246,230.117 47.772,239.619C58.365,247.061 72.361,247.41 83.255,247.615C83.621,247.622 125.656,247.909 139.411,247.615Z" style="fill-rule:nonzero;"/>
                    <path d="M71.951,195.305C71.484,195.772 71.484,196.53 71.951,196.997L81.495,206.539C82.65,207.695 83.299,209.262 83.3,210.896C83.3,212.531 82.65,214.098 81.495,215.254L81.339,215.409C78.933,217.815 75.032,217.815 72.626,215.409L55.895,198.679C55.224,198.009 54.847,197.099 54.847,196.151C54.847,195.203 55.224,194.293 55.895,193.623L72.626,176.893C75.032,174.487 78.933,174.487 81.339,176.893L81.495,177.049C82.65,178.204 83.3,179.772 83.3,181.406C83.299,183.04 82.65,184.607 81.495,185.763L71.951,195.305Z"/>
                </g>
            </g>
        </g>
    </g>
</svg>
